<svg width="25" height="25" viewBox="0 0 25 25" fill="none" xmlns="http://www.w3.org/2000/svg">
<g clip-path="url(#clip0_437_227)">
<path d="M18.2214 1.6826L15.8656 4.61529C15.3367 5.28837 15.2887 6.24991 15.8175 6.92298L17.6444 9.42298C17.8848 9.71144 17.8367 10.1441 17.5483 10.4326L14.1829 14.1826L10.4329 17.548C10.1444 17.8364 9.75982 17.8364 9.42328 17.6441L6.92328 15.8172C6.25021 15.2884 5.28867 15.3364 4.61559 15.8653L1.6829 18.2211C0.817516 18.9422 0.721362 20.2403 1.53867 21.0576L4.03867 23.5576C4.42328 23.9422 4.95213 24.1345 5.48098 24.1345C10.3848 23.8941 15.0483 21.6826 18.3175 18.4134C21.5867 15.1441 23.7983 10.4807 24.0387 5.57683C24.0867 5.04798 23.8464 4.51914 23.4617 4.13452L20.9617 1.63452C20.2406 0.721061 18.8944 0.769136 18.2214 1.6826Z" fill="white"/>
</g>
<defs>
<clipPath id="clip0_437_227">
<rect width="25" height="25" fill="white" transform="translate(0 25) rotate(-90)"/>
</clipPath>
</defs>
</svg>
