<svg width="18" height="18" viewBox="0 0 18 18" fill="none" xmlns="http://www.w3.org/2000/svg">
<path d="M16.8161 13.0335L14.639 11.2846C14.1393 10.892 13.4255 10.8563 12.9258 11.2489L11.0699 12.6052C10.8558 12.7837 10.5345 12.748 10.3204 12.5338L7.5365 10.0354L5.03814 7.25156C4.82399 7.03741 4.82399 6.75189 4.96676 6.50205L6.32301 4.64612C6.71561 4.14645 6.67992 3.43263 6.28732 2.93296L4.53847 0.75581C4.0031 0.113374 3.03945 0.0419918 2.4327 0.648737L0.576774 2.50467C0.291247 2.79019 0.148483 3.18279 0.148483 3.57539C0.326938 7.21587 1.96872 10.6779 4.3957 13.1049C6.82269 15.5319 10.2847 17.1736 13.9252 17.3521C14.3178 17.3878 14.7104 17.2093 14.9959 16.9238L16.8518 15.0679C17.53 14.5325 17.4943 13.5332 16.8161 13.0335Z" fill="white"/>
</svg>
