<svg width="70" height="70" viewBox="0 0 70 70" fill="none" xmlns="http://www.w3.org/2000/svg">
<path d="M38.5471 32.8011C38.5471 30.8508 36.9502 29.2539 35 29.2539C33.0498 29.2539 31.4529 30.8508 31.4529 32.8011C31.4529 34.7644 33.0498 36.3481 35 36.3481C36.9502 36.3481 38.5471 34.7644 38.5471 32.8011Z" fill="white"/>
<path d="M36.4267 38.9659H33.5733C30.1833 38.9659 27.2645 41.2172 26.3614 44.424C28.7173 46.5967 31.7801 47.8008 35 47.8008C38.2199 47.8008 41.2827 46.5967 43.6386 44.424C42.7355 41.2172 39.8167 38.9659 36.4267 38.9659Z" fill="white"/>
<path d="M45.5889 42.1857C47.0156 40.0916 47.801 37.5784 47.801 35C47.801 27.9451 42.0549 22.199 35 22.199C27.9451 22.199 22.199 27.9451 22.199 35C22.199 37.5784 22.9844 40.0916 24.4111 42.1857C25.576 39.6596 27.7488 37.7355 30.3796 36.8717C29.4241 35.7853 28.8351 34.3587 28.8351 32.8011C28.8351 29.3979 31.5969 26.6362 35 26.6362C38.4031 26.6362 41.1649 29.3979 41.1649 32.8011C41.1649 34.3587 40.5759 35.7853 39.6204 36.8717C42.2512 37.7355 44.424 39.6596 45.5889 42.1857Z" fill="white"/>
<path d="M29.0281 8.15933C29.0281 11.0797 31.139 13.5187 33.9063 14.0219V19.4797C33.9063 20.0922 34.3985 20.5734 35 20.5734C35.6016 20.5734 36.0938 20.0922 36.0938 19.4797V14.0219C38.861 13.5187 40.9719 11.0797 40.9719 8.15933C40.9719 4.8672 38.2922 2.1875 35 2.1875C31.7078 2.1875 29.0281 4.8672 29.0281 8.15933Z" fill="white"/>
<path d="M10.3469 15.6297C8.80468 16.0343 7.51406 17.0078 6.7047 18.3859C5.03123 21.2297 5.99374 24.8938 8.82658 26.5672C9.77813 27.114 10.8172 27.3875 11.8453 27.3875C13.5406 27.3875 15.2032 26.6547 16.3625 25.3312L21.0656 28.0875C21.2406 28.1859 21.4266 28.2406 21.6235 28.2406C21.9953 28.2406 22.3563 28.0438 22.5641 27.6938C22.8703 27.1797 22.6953 26.5125 22.1703 26.2062L17.4781 23.4391C17.8828 22.3125 17.9375 21.0875 17.6313 19.9063C17.2375 18.364 16.2531 17.0734 14.875 16.2641C13.5078 15.4547 11.9 15.225 10.3469 15.6297Z" fill="white"/>
<path d="M63.2953 18.3859C62.4859 17.0078 61.1953 16.0343 59.6531 15.6297C58.1 15.225 56.4922 15.4547 55.125 16.2641C53.7469 17.0734 52.7625 18.364 52.3687 19.9063C52.0625 21.0875 52.1172 22.3125 52.5219 23.4391L47.8297 26.2062C47.3047 26.5125 47.1297 27.1797 47.4359 27.6938C47.6437 28.0438 48.0047 28.2406 48.3765 28.2406C48.5734 28.2406 48.7594 28.1859 48.9344 28.0875L53.6375 25.3312C54.7968 26.6547 56.4484 27.3875 58.1547 27.3875C59.1828 27.3875 60.2219 27.114 61.1734 26.5672C64.0063 24.8938 64.9688 21.2297 63.2953 18.3859Z" fill="white"/>
<path d="M10.3469 54.3703C10.85 54.5015 11.3641 54.5672 11.8672 54.5672C12.9172 54.5672 13.9453 54.2828 14.875 53.736C16.2531 52.9266 17.2375 51.6359 17.6313 50.0937C17.9375 48.9125 17.8828 47.6875 17.4781 46.561L22.1703 43.7937C22.6953 43.4875 22.8703 42.8203 22.5641 42.3063C22.2578 41.7813 21.5906 41.6062 21.0656 41.9125L16.3625 44.6687C14.5031 42.536 11.3422 41.9562 8.82658 43.4328C5.99374 45.1062 5.03123 48.7703 6.7047 51.6141C7.51406 52.9922 8.80468 53.9656 10.3469 54.3703Z" fill="white"/>
<path d="M63.2953 51.6141C64.9688 48.7703 64.0063 45.1062 61.1734 43.4328C58.6578 41.9562 55.4969 42.536 53.6375 44.6687L48.9344 41.9125C48.4094 41.6062 47.7422 41.7813 47.4359 42.3063C47.1297 42.8203 47.3047 43.4875 47.8297 43.7937L52.5219 46.561C52.1172 47.6875 52.0625 48.9125 52.3687 50.0937C52.7625 51.6359 53.7469 52.9266 55.125 53.736C56.0547 54.2828 57.0828 54.5672 58.1328 54.5672C58.6359 54.5672 59.15 54.5015 59.6531 54.3703C61.1953 53.9656 62.4859 52.9922 63.2953 51.6141Z" fill="white"/>
<path d="M35 49.4266C34.3985 49.4266 33.9063 49.9078 33.9063 50.5203V55.9781C31.139 56.4813 29.0281 58.9203 29.0281 61.8406C29.0281 65.1328 31.7078 67.8125 35 67.8125C38.2922 67.8125 40.9719 65.1328 40.9719 61.8406C40.9719 58.9203 38.861 56.4813 36.0938 55.9781V50.5203C36.0938 49.9078 35.6016 49.4266 35 49.4266Z" fill="white"/>
</svg>
