<svg width="21" height="22" viewBox="0 0 21 22" fill="none" xmlns="http://www.w3.org/2000/svg">
<g clip-path="url(#clip0_437_563)">
<path d="M15.8011 2.16187H4.51538C2.73321 2.16187 1.28848 3.6066 1.28848 5.38876V16.6744C1.28848 18.4566 2.73321 19.9013 4.51538 19.9013H15.8011C17.5832 19.9013 19.028 18.4566 19.028 16.6744V5.38876C19.028 3.6066 17.5832 2.16187 15.8011 2.16187Z" stroke="#EDF5FF" stroke-width="2" stroke-miterlimit="10"/>
<path d="M10.1578 15.061C12.3831 15.061 14.1871 13.257 14.1871 11.0316C14.1871 8.80622 12.3831 7.0022 10.1578 7.0022C7.93238 7.0022 6.12836 8.80622 6.12836 11.0316C6.12836 13.257 7.93238 15.061 10.1578 15.061Z" stroke="#EDF5FF" stroke-width="2" stroke-miterlimit="10"/>
<path d="M15.3951 7.00213C16.0623 7.00213 16.6031 6.4613 16.6031 5.79416C16.6031 5.12701 16.0623 4.58618 15.3951 4.58618C14.728 4.58618 14.1871 5.12701 14.1871 5.79416C14.1871 6.4613 14.728 7.00213 15.3951 7.00213Z" fill="#EDF5FF"/>
</g>
<defs>
<clipPath id="clip0_437_563">
<rect width="20.2737" height="20.2737" fill="white" transform="translate(0.0209045 0.894775)"/>
</clipPath>
</defs>
</svg>
