<svg width="16" height="15" viewBox="0 0 16 15" fill="none" xmlns="http://www.w3.org/2000/svg">
<path d="M0.995531 14.4444H3.0122C3.29042 14.4444 3.51594 14.2189 3.51594 13.9406V5.12581C3.51594 4.84756 3.29042 4.62207 3.0122 4.62207H0.995531C0.717281 4.62207 0.491791 4.84756 0.491791 5.12581V13.9406C0.491791 14.2188 0.717281 14.4444 0.995531 14.4444Z" fill="#EDF5FF"/>
<path d="M0.995622 3.07222H3.01229C3.29051 3.07222 3.51603 2.8467 3.51603 2.56848V0.777666C3.51603 0.499444 3.29051 0.273926 3.01229 0.273926H0.995622C0.717373 0.273926 0.491882 0.499444 0.491882 0.777666V2.56848C0.491882 2.8467 0.717373 3.07222 0.995622 3.07222Z" fill="#EDF5FF"/>
<path d="M15.2457 5.64426C14.9623 5.27124 14.5445 4.96448 13.992 4.72403C13.4394 4.48375 12.8296 4.36353 12.1623 4.36353C10.8077 4.36353 9.65994 4.88048 8.71894 5.91459C8.5317 6.12036 8.39557 6.07537 8.39557 5.79712V5.12559C8.39557 4.84734 8.17002 4.62185 7.8918 4.62185H6.09035C5.8121 4.62185 5.58661 4.84734 5.58661 5.12559V13.9404C5.58661 14.2186 5.81213 14.4442 6.09035 14.4442H8.10702C8.38527 14.4442 8.61076 14.2186 8.61076 13.9404V10.8748C8.61076 9.59773 8.68788 8.72235 8.84212 8.24883C8.9963 7.77532 9.28159 7.39508 9.69771 7.10808C10.1139 6.82107 10.5838 6.6775 11.1076 6.6775C11.5166 6.6775 11.8664 6.77797 12.157 6.97893C12.4476 7.17987 12.6575 7.46134 12.7866 7.82375C12.9158 8.18611 12.9804 8.98429 12.9804 10.2184V13.9404C12.9804 14.2186 13.2059 14.4442 13.4841 14.4442H15.5008C15.779 14.4442 16.0045 14.2186 16.0045 13.9404V8.9484C16.0045 8.06594 15.9489 7.38787 15.8378 6.91436C15.7267 6.44084 15.5293 6.01748 15.2457 5.64426Z" fill="#EDF5FF"/>
</svg>
