<svg width="70" height="70" viewBox="0 0 70 70" fill="none" xmlns="http://www.w3.org/2000/svg">
<g clip-path="url(#clip0_437_616)">
<path d="M20.6445 67.9492C20.6445 62.2861 16.0538 57.5586 10.3906 57.5586C4.72748 57.5586 0 62.2861 0 67.9492V70H20.6445V67.9492Z" fill="white"/>
<path d="M16.543 47.3047C16.543 50.7024 13.7883 53.457 10.3906 53.457C6.99295 53.457 4.23828 50.7024 4.23828 47.3047C4.23828 43.907 6.99295 41.1523 10.3906 41.1523C13.7883 41.1523 16.543 43.907 16.543 47.3047Z" fill="white"/>
<path d="M45.2539 67.9492C45.2539 62.2861 40.6631 57.5586 35 57.5586C29.3369 57.5586 24.7461 62.2861 24.7461 67.9492V70H45.2539V67.9492Z" fill="white"/>
<path d="M41.1523 47.3047C41.1523 50.7024 38.3977 53.457 35 53.457C31.6023 53.457 28.8477 50.7024 28.8477 47.3047C28.8477 43.907 31.6023 41.1523 35 41.1523C38.3977 41.1523 41.1523 43.907 41.1523 47.3047Z" fill="white"/>
<path d="M59.6094 57.5586C53.9462 57.5586 49.3555 62.2861 49.3555 67.9492V70H70V67.9492C70 62.2861 65.2725 57.5586 59.6094 57.5586Z" fill="white"/>
<path d="M65.7617 47.3047C65.7617 50.7024 63.007 53.457 59.6094 53.457C56.2117 53.457 53.457 50.7024 53.457 47.3047C53.457 43.907 56.2117 41.1523 59.6094 41.1523C63.007 41.1523 65.7617 43.907 65.7617 47.3047Z" fill="white"/>
<path d="M45.2539 10.3906C45.2539 4.72748 40.6631 0 35 0C29.3369 0 24.7461 4.72748 24.7461 10.3906C24.7461 16.0538 29.3369 20.6445 35 20.6445C40.6631 20.6445 45.2539 16.0538 45.2539 10.3906Z" fill="white"/>
<path d="M54.3014 38.576C51.52 30.5476 43.9743 24.7461 35 24.7461C26.0257 24.7461 18.48 30.5476 15.6986 38.576C18.0912 40.0362 19.8595 42.4197 20.4368 45.2539H24.9538C25.9066 40.5793 30.0487 37.0508 35 37.0508C39.9512 37.0508 44.0934 40.5793 45.0461 45.2539H49.5632C50.1405 42.4197 51.9088 40.0362 54.3014 38.576Z" fill="white"/>
</g>
<defs>
<clipPath id="clip0_437_616">
<rect width="70" height="70" fill="white"/>
</clipPath>
</defs>
</svg>
